<svg xmlns="http://www.w3.org/2000/svg" viewBox="0 0 120 120">
  <rect width="120" height="120" rx="26" fill="#ffffff"/>
  <g transform="translate(0,6)">
    <path d="M 12 62 A 49 49 0 0 1 108 62" fill="none" stroke="#ef5a28" stroke-width="5" stroke-linecap="round"/>
    <path d="M 30 60 L 60 31 L 90 60" fill="none" stroke="#5aa12f" stroke-width="6" stroke-linecap="round" stroke-linejoin="round"/>
    <path d="M 60 23 C 57.5 19.5 52 21 52 25 C 52 28 57 31 60 33.5 C 63 31 68 28 68 25 C 68 21 62.5 19.5 60 23 Z" fill="#5aa12f"/>
    <g fill="#5a3a22">
      <ellipse cx="20" cy="55" rx="6.5" ry="9"/>
      <rect x="17.6" y="61" width="4.8" height="34" rx="2.4"/>
      <rect x="98" y="44" width="2.6" height="14" rx="1.3"/>
      <rect x="102" y="44" width="2.6" height="14" rx="1.3"/>
      <rect x="106" y="44" width="2.6" height="14" rx="1.3"/>
      <path d="M 98 55 H 108.6 V 57 a 3 3 0 0 1 -3 3 h -4.6 a 3 3 0 0 1 -3 -3 Z"/>
      <rect x="101.4" y="59" width="3.8" height="36" rx="1.9"/>
    </g>
    <ellipse cx="38" cy="78" rx="6" ry="7.5" fill="#d8481c"/>
    <ellipse cx="82" cy="78" rx="6" ry="7.5" fill="#d8481c"/>
    <path d="M 40 70 H 80 L 77 95 a 4 4 0 0 1 -4 3.4 H 47 a 4 4 0 0 1 -4 -3.4 Z" fill="#ef5a28"/>
    <ellipse cx="60" cy="69" rx="23" ry="6" fill="#d8481c"/>
    <rect x="56.5" y="60.5" width="7" height="6" rx="2" fill="#d8481c"/>
    <path d="M 50 79 q 2.4 -3 4.8 0" fill="none" stroke="#fff" stroke-width="2.2" stroke-linecap="round"/>
    <path d="M 65.2 79 q 2.4 -3 4.8 0" fill="none" stroke="#fff" stroke-width="2.2" stroke-linecap="round"/>
    <path d="M 52 86 q 8 7 16 0" fill="none" stroke="#fff" stroke-width="2.6" stroke-linecap="round"/>
    <path d="M 30 103 Q 60 110 90 103" fill="none" stroke="#5aa12f" stroke-width="5" stroke-linecap="round"/>
  </g>
</svg>
